<svg width="24" height="24" viewBox="0 0 24 24" fill="none" xmlns="http://www.w3.org/2000/svg">
  <path d="M6.00329 4.05781C5.91185 4.02441 5.80964 4.06169 5.76119 4.14613L4.97192 5.52168L1.02749 12.2457C1.00949 12.2764 1 12.3113 1 12.3469V12.5218C1 14.8974 2.98419 16.8301 5.42308 16.8301C7.86196 16.8301 9.84615 14.8974 9.84615 12.5218V12.3469C9.84615 12.3113 9.83667 12.2764 9.81867 12.2457L6.40338 6.4221C6.30852 6.26035 6.46839 6.06872 6.64452 6.13306L9.80661 7.28807C9.83354 7.29791 9.84615 7.32317 9.84615 7.35184C9.84615 8.42463 10.5248 9.33826 11.4822 9.72808C11.5611 9.76019 11.6154 9.83536 11.6154 9.92052V20.0767C11.6154 20.1871 11.5258 20.2767 11.4154 20.2767H8.27692C8.16647 20.2767 8.07692 20.3662 8.07692 20.4767V21.8C8.07692 21.9105 8.16647 22 8.27692 22H13.1846C13.2951 22 13.3846 21.9105 13.3846 21.8V9.92031C13.3846 9.83525 13.4387 9.76018 13.5174 9.72795C13.858 9.58855 14.1649 9.38121 14.4183 9.11933C14.4765 9.05911 14.5645 9.03628 14.6429 9.06597L18.462 10.5129C18.5778 10.5568 18.6263 10.6943 18.5636 10.8011L15.1813 16.5678C15.1633 16.5985 15.1538 16.6334 15.1538 16.669V16.8438C15.1538 19.2186 17.138 21.1383 19.5769 21.1383C22.0158 21.1383 24 19.2186 24 16.8438V16.669C24 16.6334 23.9905 16.5985 23.9725 16.5678L19.6127 9.13614C19.5896 9.09668 19.5536 9.06635 19.5108 9.05021L15.1988 7.42423C15.1686 7.41282 15.1538 7.38418 15.1538 7.35184C15.1538 5.92666 13.9632 4.76687 12.5 4.76687C12.1145 4.76832 11.7341 4.85208 11.3854 5.01227C11.0794 5.15289 10.8044 5.34939 10.5752 5.59069C10.5176 5.65129 10.4301 5.67499 10.3516 5.64631L6.00329 4.05781ZM12.5 6.49019C12.7278 6.50011 12.9428 6.59523 13.1004 6.75573C13.258 6.91624 13.3459 7.12976 13.3459 7.35184C13.3459 7.57392 13.258 7.78745 13.1004 7.94795C12.9428 8.10846 12.7278 8.20357 12.5 8.2135C12.2722 8.20357 12.0572 8.10846 11.8996 7.94795C11.742 7.78745 11.6541 7.57392 11.6541 7.35184C11.6541 7.12976 11.742 6.91624 11.8996 6.75573C12.0572 6.59523 12.2722 6.50011 12.5 6.49019ZM5.25058 8.52127C5.32786 8.38955 5.51829 8.38955 5.59557 8.52127L7.2606 11.3589C7.33884 11.4922 7.24269 11.6601 7.08811 11.6601H3.75805C3.60346 11.6601 3.50732 11.4922 3.58555 11.3589L5.25058 8.52127ZM19.4044 12.8425C19.4817 12.7108 19.6721 12.7108 19.7494 12.8425L21.4065 15.6672C21.4847 15.8005 21.3886 15.9684 21.234 15.9684H17.9198C17.7652 15.9684 17.6691 15.8005 17.7473 15.6672L19.4044 12.8425ZM3.04679 13.6462C2.98489 13.5218 3.08093 13.3834 3.21988 13.3834H7.62754C7.76614 13.3834 7.86219 13.5211 7.80084 13.6454C7.60747 14.0371 7.31481 14.3763 6.94853 14.6299C6.5028 14.9385 5.96991 15.1051 5.42308 15.1067C4.37476 15.1067 3.47594 14.5086 3.04679 13.6462ZM17.1916 17.9527C17.1312 17.8285 17.2273 17.6917 17.3654 17.6917H21.7884C21.9265 17.6917 22.0226 17.8285 21.9623 17.9527C21.7701 18.3484 21.4769 18.6915 21.1087 18.9479C20.6617 19.2591 20.1264 19.4272 19.5769 19.4288C19.0275 19.4272 18.4921 19.2591 18.0451 18.9479C17.677 18.6915 17.3838 18.3484 17.1916 17.9527Z" fill="#545D6A" />
</svg>